<svg width="60" height="60" viewBox="0 0 60 60" fill="none" xmlns="http://www.w3.org/2000/svg">
<path d="M14.625 42.75C16.75 41.125 19.125 39.8433 21.75 38.905C24.375 37.9683 27.125 37.5 30 37.5C32.875 37.5 35.625 37.9683 38.25 38.905C40.875 39.8433 43.25 41.125 45.375 42.75C46.8333 41.0417 47.9692 39.1042 48.7825 36.9375C49.5942 34.7708 50 32.4583 50 30C50 24.4583 48.0525 19.7392 44.1575 15.8425C40.2608 11.9475 35.5417 10 30 10C24.4583 10 19.74 11.9475 15.845 15.8425C11.9483 19.7392 10 24.4583 10 30C10 32.4583 10.4067 34.7708 11.22 36.9375C12.0317 39.1042 13.1667 41.0417 14.625 42.75ZM30 32.5C27.5417 32.5 25.4683 31.6567 23.78 29.97C22.0933 28.2817 21.25 26.2083 21.25 23.75C21.25 21.2917 22.0933 19.2183 23.78 17.53C25.4683 15.8433 27.5417 15 30 15C32.4583 15 34.5317 15.8433 36.22 17.53C37.9067 19.2183 38.75 21.2917 38.75 23.75C38.75 26.2083 37.9067 28.2817 36.22 29.97C34.5317 31.6567 32.4583 32.5 30 32.5ZM30 55C26.5417 55 23.2917 54.3433 20.25 53.03C17.2083 51.7183 14.5625 49.9375 12.3125 47.6875C10.0625 45.4375 8.28167 42.7917 6.97 39.75C5.65667 36.7083 5 33.4583 5 30C5 26.5417 5.65667 23.2917 6.97 20.25C8.28167 17.2083 10.0625 14.5625 12.3125 12.3125C14.5625 10.0625 17.2083 8.28083 20.25 6.9675C23.2917 5.65583 26.5417 5 30 5C33.4583 5 36.7083 5.65583 39.75 6.9675C42.7917 8.28083 45.4375 10.0625 47.6875 12.3125C49.9375 14.5625 51.7183 17.2083 53.03 20.25C54.3433 23.2917 55 26.5417 55 30C55 33.4583 54.3433 36.7083 53.03 39.75C51.7183 42.7917 49.9375 45.4375 47.6875 47.6875C45.4375 49.9375 42.7917 51.7183 39.75 53.03C36.7083 54.3433 33.4583 55 30 55ZM30 50C32.2083 50 34.2917 49.6775 36.25 49.0325C38.2083 48.3858 40 47.4583 41.625 46.25C40 45.0417 38.2083 44.1142 36.25 43.4675C34.2917 42.8225 32.2083 42.5 30 42.5C27.7917 42.5 25.7083 42.8225 23.75 43.4675C21.7917 44.1142 20 45.0417 18.375 46.25C20 47.4583 21.7917 48.3858 23.75 49.0325C25.7083 49.6775 27.7917 50 30 50ZM30 27.5C31.0833 27.5 31.9792 27.1458 32.6875 26.4375C33.3958 25.7292 33.75 24.8333 33.75 23.75C33.75 22.6667 33.3958 21.7708 32.6875 21.0625C31.9792 20.3542 31.0833 20 30 20C28.9167 20 28.0208 20.3542 27.3125 21.0625C26.6042 21.7708 26.25 22.6667 26.25 23.75C26.25 24.8333 26.6042 25.7292 27.3125 26.4375C28.0208 27.1458 28.9167 27.5 30 27.5Z" fill="black"/>
</svg>
