<svg width="40" height="40" viewBox="0 0 40 40" fill="none" xmlns="http://www.w3.org/2000/svg">
<g clip-path="url(#clip0_171_1368)">
<path d="M20.0002 3.33334C29.2052 3.33334 36.6668 10.795 36.6668 20C36.6668 29.205 29.2052 36.6667 20.0002 36.6667C10.7952 36.6667 3.3335 29.205 3.3335 20C3.3335 10.795 10.7952 3.33334 20.0002 3.33334ZM20.0002 6.66667C16.4639 6.66667 13.0726 8.07143 10.5721 10.5719C8.07159 13.0724 6.66683 16.4638 6.66683 20C6.66683 23.5362 8.07159 26.9276 10.5721 29.4281C13.0726 31.9286 16.4639 33.3333 20.0002 33.3333C23.5364 33.3333 26.9278 31.9286 29.4283 29.4281C31.9287 26.9276 33.3335 23.5362 33.3335 20C33.3335 16.4638 31.9287 13.0724 29.4283 10.5719C26.9278 8.07143 23.5364 6.66667 20.0002 6.66667ZM16.4652 14.1067L20.0002 17.6433L23.5352 14.1067C23.69 13.9518 23.8738 13.829 24.0762 13.7452C24.2785 13.6614 24.4953 13.6182 24.7143 13.6182C24.9333 13.6182 25.1502 13.6614 25.3525 13.7452C25.5548 13.829 25.7386 13.9518 25.8935 14.1067C26.0483 14.2615 26.1712 14.4454 26.255 14.6477C26.3388 14.85 26.3819 15.0668 26.3819 15.2858C26.3819 15.5048 26.3388 15.7217 26.255 15.924C26.1712 16.1263 26.0483 16.3102 25.8935 16.465L22.3568 19.9983L25.8935 23.535C26.2062 23.8477 26.3819 24.2719 26.3819 24.7142C26.3819 25.1564 26.2062 25.5806 25.8935 25.8933C25.5808 26.2061 25.1566 26.3818 24.7143 26.3818C24.2721 26.3818 23.8479 26.2061 23.5352 25.8933L20.0002 22.3567L16.4652 25.8933C16.1524 26.2061 15.7283 26.3818 15.286 26.3818C14.8437 26.3818 14.4196 26.2061 14.1068 25.8933C13.7941 25.5806 13.6184 25.1564 13.6184 24.7142C13.6184 24.2719 13.7941 23.8477 14.1068 23.535L17.6435 20L14.1085 16.465C13.7958 16.1525 13.62 15.7285 13.6198 15.2864C13.6197 14.8443 13.7951 14.4202 14.1077 14.1075C14.4202 13.7948 14.8441 13.619 15.2862 13.6188C15.7284 13.6187 16.1524 13.7942 16.4652 14.1067Z" fill="black"/>
</g>
<defs>
<clipPath id="clip0_171_1368">
<rect width="40" height="40" fill="white"/>
</clipPath>
</defs>
</svg>
