<svg width="60" height="60" viewBox="0 0 60 60" fill="none" xmlns="http://www.w3.org/2000/svg">
<path d="M7.5 30H30V33.75H7.5V30ZM3.75 20.625H22.5V24.375H3.75V20.625Z" fill="black"/>
<path d="M56.0984 31.1363L50.4734 18.0113C50.329 17.6739 50.0888 17.3864 49.7825 17.1844C49.4761 16.9824 49.1172 16.8748 48.7503 16.875H43.1253V13.125C43.1253 12.6277 42.9277 12.1508 42.5761 11.7992C42.2245 11.4475 41.7475 11.25 41.2503 11.25H11.2503V15H39.3753V38.5425C38.5209 39.0386 37.7732 39.699 37.1753 40.4855C36.5773 41.272 36.141 42.1691 35.8915 43.125H24.109C23.6526 41.3575 22.5673 39.8171 21.0565 38.7926C19.5457 37.7681 17.713 37.3298 15.9021 37.5598C14.0912 37.7898 12.4264 38.6724 11.2197 40.0421C10.0129 41.4118 9.34717 43.1745 9.34717 45C9.34717 46.8255 10.0129 48.5882 11.2197 49.9579C12.4264 51.3276 14.0912 52.2102 15.9021 52.4402C17.713 52.6702 19.5457 52.2319 21.0565 51.2074C22.5673 50.1829 23.6526 48.6425 24.109 46.875H35.8915C36.2994 48.4842 37.2322 49.9114 38.5423 50.9309C39.8525 51.9504 41.4652 52.504 43.1253 52.504C44.7854 52.504 46.398 51.9504 47.7082 50.9309C49.0183 49.9114 49.9511 48.4842 50.359 46.875H54.3753C54.8725 46.875 55.3495 46.6775 55.7011 46.3258C56.0527 45.9742 56.2503 45.4973 56.2503 45V31.875C56.2504 31.621 56.1987 31.3696 56.0984 31.1363ZM16.8753 48.75C16.1336 48.75 15.4086 48.5301 14.7919 48.118C14.1752 47.706 13.6945 47.1203 13.4107 46.4351C13.1269 45.7498 13.0526 44.9958 13.1973 44.2684C13.342 43.541 13.6992 42.8728 14.2236 42.3484C14.7481 41.8239 15.4162 41.4668 16.1437 41.3221C16.8711 41.1774 17.6251 41.2516 18.3103 41.5355C18.9955 41.8193 19.5812 42.2999 19.9933 42.9166C20.4053 43.5333 20.6253 44.2583 20.6253 45C20.6243 45.9943 20.2289 46.9475 19.5258 47.6506C18.8228 48.3536 17.8695 48.749 16.8753 48.75ZM43.1253 20.625H47.5128L51.5328 30H43.1253V20.625ZM43.1253 48.75C42.3836 48.75 41.6586 48.5301 41.0419 48.118C40.4252 47.706 39.9445 47.1203 39.6607 46.4351C39.3769 45.7498 39.3026 44.9958 39.4473 44.2684C39.592 43.541 39.9492 42.8728 40.4736 42.3484C40.9981 41.8239 41.6662 41.4668 42.3937 41.3221C43.1211 41.1774 43.8751 41.2516 44.5603 41.5355C45.2455 41.8193 45.8312 42.2999 46.2433 42.9166C46.6553 43.5333 46.8753 44.2583 46.8753 45C46.8743 45.9943 46.4789 46.9475 45.7758 47.6506C45.0728 48.3536 44.1195 48.749 43.1253 48.75ZM52.5003 43.125H50.359C49.946 41.5189 49.0117 40.0953 47.7026 39.0774C46.3935 38.0594 44.7836 37.5046 43.1253 37.5V33.75H52.5003V43.125Z" fill="black"/>
</svg>
