<svg width="24" height="24" viewBox="0 0 24 24" fill="none" xmlns="http://www.w3.org/2000/svg">
<path d="M5.29142 18.7083L5.29168 18.7086C6.15353 19.5711 7.16258 20.2525 8.32299 20.7529L8.3232 20.753C9.47531 21.2504 10.6993 21.5 12 21.5H16.5V20.5H12C9.68106 20.5 7.6754 19.6575 6.00845 17.9906C4.34211 16.3242 3.5 14.3189 3.5 12C3.5 9.68113 4.3421 7.6755 6.00837 6.00852L6.00852 6.00837C7.6755 4.3421 9.68113 3.5 12 3.5C14.3189 3.5 16.3242 4.34211 17.9906 6.00845C19.6575 7.6754 20.5 9.68106 20.5 12V13.45C20.5 14.0447 20.3106 14.5683 19.888 14.9555M5.29142 18.7083L19.55 14.587M5.29142 18.7083C4.42894 17.8465 3.74754 16.8374 3.24713 15.677L3.24704 15.6768M5.29142 18.7083L3.24704 15.6768M19.888 14.9555C19.8879 14.9556 19.8877 14.9557 19.8876 14.9558L19.55 14.587M19.888 14.9555C19.888 14.9554 19.888 14.9554 19.8881 14.9554L19.55 14.587M19.888 14.9555C19.4976 15.3137 19.0276 15.5 18.5 15.5C17.9725 15.5 17.5027 15.3138 17.1124 14.9558M19.55 14.587C19.25 14.8623 18.9 15 18.5 15C18.1 15 17.75 14.8623 17.45 14.587M17.1124 14.9558L17.45 14.587M17.1124 14.9558C16.6894 14.5686 16.5 14.0448 16.5 13.45V12C16.5 10.7488 16.065 9.69686 15.1846 8.81567M17.1124 14.9558C17.1122 14.9556 17.1121 14.9555 17.1119 14.9554L17.45 14.587M17.45 14.587L15.1846 8.81567M15.1846 8.81567L15.538 8.462L15.1843 8.81543C15.1844 8.81551 15.1845 8.81559 15.1846 8.81567ZM15.55 15.55C15.6521 15.6828 15.7629 15.8077 15.8822 15.9248C15.8893 15.9177 15.8964 15.9107 15.9036 15.9036L15.55 15.55ZM15.55 15.55L15.1537 15.8549C15.1617 15.8652 15.1697 15.8756 15.1778 15.8858C15.3073 15.7805 15.4314 15.6686 15.55 15.55ZM3.24704 15.6768C2.74958 14.5247 2.5 13.3007 2.5 12C2.5 10.6818 2.74991 9.45435 3.24652 8.3124L3.24665 8.31209M3.24704 15.6768L3.24665 8.31209M3.24665 8.31209C3.74693 7.1596 4.4284 6.15408 5.29142 5.29168L5.29168 5.29142M3.24665 8.31209L5.29168 5.29142M5.29168 5.29142C6.15353 4.42895 7.16258 3.7472 8.32299 3.24613L5.29168 5.29142ZM13.7676 16.1528C13.7675 16.1528 13.7674 16.1529 13.7673 16.1529L13.963 16.613L13.7679 16.1526C13.7678 16.1527 13.7677 16.1527 13.7676 16.1528ZM8.3232 3.24604C9.4753 2.74925 10.6993 2.5 12 2.5C13.3183 2.5 14.5457 2.7496 15.6877 3.24556L8.3232 3.24604ZM12 15.5C12.9644 15.5 13.8004 15.1567 14.4786 14.4786C15.1567 13.8004 15.5 12.9644 15.5 12C15.5 11.0356 15.1567 10.1996 14.4786 9.52145C13.8004 8.84328 12.9644 8.5 12 8.5C11.0356 8.5 10.1996 8.84328 9.52145 9.52145C8.84328 10.1996 8.5 11.0356 8.5 12C8.5 12.9644 8.84328 13.8004 9.52145 14.4786C10.1996 15.1567 11.0356 15.5 12 15.5Z" fill="black" stroke="black"/>
</svg>
