<svg width="24" height="24" viewBox="0 0 24 24" fill="none" xmlns="http://www.w3.org/2000/svg">
<g clip-path="url(#clip0_30_2015)">
<path d="M22.5027 10.133L21.3627 9.1245H21.3602C21.3073 9.07849 21.2458 9.04336 21.1792 9.02112C21.1127 8.99888 21.0425 8.98997 20.9725 8.99489C20.9025 8.99981 20.8342 9.01847 20.7714 9.04981C20.7087 9.08114 20.6527 9.12453 20.6067 9.1775H20.6042L18.1542 11.99C18.062 12.0963 18.0158 12.2348 18.0256 12.3751C18.0355 12.5154 18.1006 12.6461 18.2067 12.7385L19.5062 13.8665C20.0107 14.304 19.6332 14.94 18.7622 16.1695C18.0981 17.1084 17.3402 17.9774 16.5002 18.763C15.8687 19.348 15.1987 19.875 14.6712 19.4145C14.6712 19.4145 14.3462 19.131 14.0237 18.848L13.3742 18.282H13.3722C13.3195 18.236 13.2582 18.2009 13.1919 18.1786C13.1256 18.1564 13.0555 18.1475 12.9857 18.1524C12.9159 18.1573 12.8478 18.176 12.7852 18.2073C12.7227 18.2387 12.6669 18.282 12.6212 18.335H12.6162C12.6162 18.335 10.0992 21.228 10.0962 21.228C10.0042 21.3343 9.95812 21.4728 9.96815 21.6131C9.97818 21.7533 10.0435 21.8839 10.1497 21.976L10.8662 22.6" stroke="black" stroke-linecap="round" stroke-linejoin="round"/>
<path d="M9.60296 8.3255C9.95808 8.3255 10.246 8.03762 10.246 7.6825C10.246 7.32739 9.95808 7.03951 9.60296 7.03951C9.24784 7.03951 8.95996 7.32739 8.95996 7.6825C8.95996 8.03762 9.24784 8.3255 9.60296 8.3255Z" stroke="black" stroke-width="0.5" stroke-linecap="round" stroke-linejoin="round"/>
<path d="M12.0463 8.3255C12.4014 8.3255 12.6893 8.03762 12.6893 7.6825C12.6893 7.32739 12.4014 7.03951 12.0463 7.03951C11.6912 7.03951 11.4033 7.32739 11.4033 7.6825C11.4033 8.03762 11.6912 8.3255 12.0463 8.3255Z" stroke="black" stroke-width="0.5" stroke-linecap="round" stroke-linejoin="round"/>
<path d="M14.4887 8.3255C14.8438 8.3255 15.1317 8.03762 15.1317 7.6825C15.1317 7.32739 14.8438 7.03951 14.4887 7.03951C14.1336 7.03951 13.8457 7.32739 13.8457 7.6825C13.8457 8.03762 14.1336 8.3255 14.4887 8.3255Z" stroke="black" stroke-width="0.5" stroke-linecap="round" stroke-linejoin="round"/>
<path d="M9.60296 10.9105C9.95808 10.9105 10.246 10.6226 10.246 10.2675C10.246 9.91238 9.95808 9.6245 9.60296 9.6245C9.24784 9.6245 8.95996 9.91238 8.95996 10.2675C8.95996 10.6226 9.24784 10.9105 9.60296 10.9105Z" stroke="black" stroke-width="0.5" stroke-linecap="round" stroke-linejoin="round"/>
<path d="M12.0463 10.9105C12.4014 10.9105 12.6893 10.6226 12.6893 10.2675C12.6893 9.91238 12.4014 9.6245 12.0463 9.6245C11.6912 9.6245 11.4033 9.91238 11.4033 10.2675C11.4033 10.6226 11.6912 10.9105 12.0463 10.9105Z" stroke="black" stroke-width="0.5" stroke-linecap="round" stroke-linejoin="round"/>
<path d="M14.4887 10.9105C14.8438 10.9105 15.1317 10.6226 15.1317 10.2675C15.1317 9.91238 14.8438 9.6245 14.4887 9.6245C14.1336 9.6245 13.8457 9.91238 13.8457 10.2675C13.8457 10.6226 14.1336 10.9105 14.4887 10.9105Z" stroke="black" stroke-width="0.5" stroke-linecap="round" stroke-linejoin="round"/>
<path d="M9.60296 13.4955C9.95808 13.4955 10.246 13.2076 10.246 12.8525C10.246 12.4974 9.95808 12.2095 9.60296 12.2095C9.24784 12.2095 8.95996 12.4974 8.95996 12.8525C8.95996 13.2076 9.24784 13.4955 9.60296 13.4955Z" stroke="black" stroke-width="0.5" stroke-linecap="round" stroke-linejoin="round"/>
<path d="M12.0463 13.4955C12.4014 13.4955 12.6893 13.2076 12.6893 12.8525C12.6893 12.4974 12.4014 12.2095 12.0463 12.2095C11.6912 12.2095 11.4033 12.4974 11.4033 12.8525C11.4033 13.2076 11.6912 13.4955 12.0463 13.4955Z" stroke="black" stroke-width="0.5" stroke-linecap="round" stroke-linejoin="round"/>
<path d="M14.4887 13.4955C14.8438 13.4955 15.1317 13.2076 15.1317 12.8525C15.1317 12.4974 14.8438 12.2095 14.4887 12.2095C14.1336 12.2095 13.8457 12.4974 13.8457 12.8525C13.8457 13.2076 14.1336 13.4955 14.4887 13.4955Z" stroke="black" stroke-width="0.5" stroke-linecap="round" stroke-linejoin="round"/>
<path d="M12.0463 16.0805C12.4014 16.0805 12.6893 15.7926 12.6893 15.4375C12.6893 15.0824 12.4014 14.7945 12.0463 14.7945C11.6912 14.7945 11.4033 15.0824 11.4033 15.4375C11.4033 15.7926 11.6912 16.0805 12.0463 16.0805Z" stroke="black" stroke-width="0.5" stroke-linecap="round" stroke-linejoin="round"/>
<path d="M22.7498 12.048C22.7491 13.9632 22.2347 15.8431 21.2601 17.4918C20.2856 19.1406 18.8867 20.4977 17.2091 21.4217C15.5316 22.3457 13.6369 22.8028 11.7226 22.7454C9.80824 22.6879 7.94437 22.118 6.32527 21.095C5.83527 20.784 2.25427 22.7365 2.25427 22.7365C2.25427 22.7365 3.79077 18.9085 3.31977 18.2475C2.34456 16.8744 1.70713 15.2906 1.4593 13.6247C1.21147 11.9589 1.36023 10.2581 1.89349 8.66059C2.42675 7.06307 3.32947 5.61394 4.52824 4.431C5.72702 3.24806 7.18803 2.36469 8.79249 1.85272C10.3969 1.34075 12.0996 1.21461 13.762 1.48457C15.4244 1.75453 16.9996 2.41297 18.3596 3.40635C19.7196 4.39973 20.826 5.70003 21.5888 7.20152C22.3517 8.70302 22.7494 10.3638 22.7498 12.048Z" stroke="black" stroke-linecap="round" stroke-linejoin="round"/>
</g>
<defs>
<clipPath id="clip0_30_2015">
<rect width="24" height="24" fill="white"/>
</clipPath>
</defs>
</svg>
